<svg xmlns="http://www.w3.org/2000/svg" xmlns:xlink="http://www.w3.org/1999/xlink" width="412.001" height="141.887" viewBox="0 0 412.001 141.887"><defs><style>.a{fill:#1a1818;}.b{fill:url(#a);}.c{fill:url(#b);}</style><linearGradient id="a" y1="0.5" x2="1" y2="0.5" gradientUnits="objectBoundingBox"><stop offset="0" stop-color="#7a3d1c"/><stop offset="0.483" stop-color="#d0a075"/><stop offset="0.962" stop-color="#804422"/><stop offset="1" stop-color="#7a3d1c"/></linearGradient><linearGradient id="b" y1="0.5" x2="1" y2="0.5" gradientUnits="objectBoundingBox"><stop offset="0" stop-color="#7a3d1c"/><stop offset="0.447" stop-color="#d0a075"/><stop offset="0.96" stop-color="#804422"/><stop offset="1" stop-color="#7a3d1c"/></linearGradient></defs><g transform="translate(-811.974 -363.416)"><path class="a" d="M22.609,101.486Q11.37,74.064.129,46.647a1.294,1.294,0,0,1,.765-1.805Q13.4,39.17,26.108,34.215c.859-.334,1.548-.031,1.726.757q1.538,3.725,3.072,7.454a1.547,1.547,0,0,1-1.026,1.729Q23.143,46.775,16.461,49.6a1.179,1.179,0,0,0-.675,1.537q2.972,7.771,5.944,15.545a1.221,1.221,0,0,0,1.763.693q5.211-2.2,10.455-4.275a1.117,1.117,0,0,1,1.659.775q1.1,3.9,2.2,7.8a1.489,1.489,0,0,1-.938,1.7q-4.937,1.96-9.843,4.036a1.147,1.147,0,0,0-.613,1.512q1.517,3.971,3.036,7.942c.285.744.86,1.075,1.479.814Q37.41,84.938,43.95,82.4a1.1,1.1,0,0,1,1.6.806q1.082,3.9,2.17,7.8a1.441,1.441,0,0,1-.888,1.675q-11.386,4.435-22.6,9.517a1.386,1.386,0,0,1-.569.136A1.171,1.171,0,0,1,22.609,101.486ZM382.594,98.68q-5.166-2.225-10.37-4.311c-5.6-2.246-7.931-7.068-5.313-14.895Q373.006,61.41,379.1,43.349c2.615-7.816,7.779-9.883,14.133-7.339q5.865,2.353,11.69,4.861c6.392,2.756,8.861,8,5.723,15.6l-14.427,35.2c-2.288,5.542-5.478,8.022-9.221,8.022A11.169,11.169,0,0,1,382.594,98.68Zm8.343-50.706q-6.512,17.9-13.027,35.8a1.2,1.2,0,0,0,.552,1.661q2.635,1.075,5.259,2.185a1.173,1.173,0,0,0,1.632-.749q6.8-17.782,13.6-35.563a1.323,1.323,0,0,0-.779-1.772q-2.714-1.148-5.437-2.262a1.748,1.748,0,0,0-.662-.142A1.176,1.176,0,0,0,390.937,47.975ZM55.119,88.136Q45.855,59.906,36.593,31.675a1.28,1.28,0,0,1,.882-1.737q4.793-1.738,9.612-3.376a1.23,1.23,0,0,1,1.687.835Q55.836,50.763,62.9,74.128a1.2,1.2,0,0,0,1.647.853q6.3-2.1,12.645-4.015a1.1,1.1,0,0,1,1.533.931q.811,3.974,1.625,7.947a1.427,1.427,0,0,1-1,1.6q-11.4,3.456-22.669,7.539a1.423,1.423,0,0,1-.486.093A1.16,1.16,0,0,1,55.119,88.136Zm298.168-.874q-3.762-1.315-7.537-2.561a1.431,1.431,0,0,1-1.1-1.9q1.177-4.025,2.352-8.05-1.459-10.458-3.251-20.934s-.012-.481-.387-.6c-.3-.091-.411.309-.441.422l-7.2,26.491a1.17,1.17,0,0,1-1.512.936q-4.309-1.294-8.634-2.5a1.246,1.246,0,0,1-.849-1.619Q331.863,48.045,339,19.135a1.234,1.234,0,0,1,1.638-.931q3.382.941,6.756,1.929c1.051.309,1.256.834,1.5,1.831q2.311,13.168,4.126,26.316a.532.532,0,0,0,.6.415c.235-.041.356-.456.58-1.222q3.181-10.941,6.363-21.882a1.164,1.164,0,0,1,1.589-.884q4.876,1.6,9.726,3.291a1.3,1.3,0,0,1,.812,1.694L354.762,86.371a1.215,1.215,0,0,1-1.115.954A1.077,1.077,0,0,1,353.287,87.262Zm-191.58-8.45-.078-.049-.009.007q-2.812-2.443-5.681-4.848c-.047-.03-.074-.072-.118-.1l0,0h0a1.218,1.218,0,0,1-.519-.9.5.5,0,0,1,0-.263c.006-.039.02-.077.031-.118a2.6,2.6,0,0,1,.157-.376c.011-.016.011-.034.021-.05l.011-.013c.127-.244.276-.476.36-.608a16.382,16.382,0,0,1,9.757-7.278l-.172.017c-5.883.567-9.934-2.7-10.825-10.945Q152.62,34.228,150.6,15.172c-.89-8.235,2.844-12.474,9.512-13.117q6.157-.587,12.323-1.024c6.768-.474,11.08,3.1,11.42,11.377q.835,19.154,1.671,38.309c.34,8.291-3.17,12.185-9.141,12.6l-1.165.085a17.166,17.166,0,0,1,11.271,5.9c.1.117.281.321.444.542l.012.01c.015.014.017.032.029.047a2.44,2.44,0,0,1,.213.346c.015.036.035.072.047.11a.485.485,0,0,1,.035.26,1.241,1.241,0,0,1-.378.973h0l0,0c-.036.039-.057.083-.1.122q-2.534,2.653-5.012,5.337l-.007-.006-.072.062s-.623.742-1.533-.238l-.055-.061c-.005-.005-.014,0-.019-.012a11.559,11.559,0,0,0-8.817-3.712h-.013c-3.224.27-6.274,2.57-8.02,5.149,0,.008-.012.009-.016.015s-.031.048-.046.068a1.214,1.214,0,0,1-.973.667A.841.841,0,0,1,161.706,78.812Zm8.321-66.875q-2.868.221-5.733.475a1.3,1.3,0,0,0-1.3,1.461q1.574,19.1,3.151,38.2c.066.8.517,1.3,1.169,1.238q2.77-.247,5.543-.462a1.228,1.228,0,0,0,1.135-1.427q-1.276-19.127-2.551-38.255a1.236,1.236,0,0,0-1.281-1.239C170.117,11.932,170.073,11.934,170.028,11.937ZM95.708,75.446q-5.6-23.9-11.194-47.791a1.217,1.217,0,0,0-1.645-.762q-3.326.876-6.642,1.8a1.148,1.148,0,0,1-1.619-.93q-.735-3.992-1.46-7.988a1.536,1.536,0,0,1,1.19-1.624q14.013-3.891,28.171-6.948c.887-.192,1.519.219,1.58,1.026q.8,3.969,1.591,7.941a1.5,1.5,0,0,1-1.244,1.541q-3.3.713-6.588,1.471A1.29,1.29,0,0,0,96.7,24.641q5.044,24.033,10.086,48.066a1.24,1.24,0,0,1-.9,1.582q-4.356,1.03-8.695,2.151a1.5,1.5,0,0,1-.373.05C96.24,76.491,95.86,76.094,95.708,75.446Zm219.8.457q-11.7-2.958-23.5-5.268a1.2,1.2,0,0,1-.958-1.547q5.088-29.389,10.177-58.78a1.2,1.2,0,0,1,1.563-1.056q13.166,2.578,26.225,5.871a1.221,1.221,0,0,1,1.026,1.636q-.68,4-1.368,8a1.425,1.425,0,0,1-1.749.84q-6.921-1.749-13.877-3.3a1.09,1.09,0,0,0-1.353.885L308.46,39.6a1.3,1.3,0,0,0,1.085,1.606q5.42,1.21,10.822,2.546a1.19,1.19,0,0,1,.961,1.614q-1.138,3.886-2.266,7.774a1.374,1.374,0,0,1-1.663.871q-5.09-1.252-10.194-2.386a1.063,1.063,0,0,0-1.293.9q-.825,4.192-1.652,8.385c-.155.785.143,1.4.787,1.541q6.749,1.5,13.466,3.209a1.169,1.169,0,0,1,.9,1.606q-1.151,3.879-2.293,7.763a1.335,1.335,0,0,1-1.262.919A1.4,1.4,0,0,1,315.51,75.9ZM121.69,69.491q-5.213-29.365-10.426-58.731a1.255,1.255,0,0,1,1.1-1.578q13.166-2.568,26.418-4.416c.893-.125,1.5.333,1.507,1.141q.719,3.993,1.434,7.988a1.491,1.491,0,0,1-1.343,1.443q-7.022.977-14.027,2.158a1.143,1.143,0,0,0-.963,1.338l2.544,16.549a1.24,1.24,0,0,0,1.555,1.091q5.459-.918,10.934-1.709a1.139,1.139,0,0,1,1.438,1.145q.258,4.057.522,8.115a1.435,1.435,0,0,1-1.252,1.44q-5.154.751-10.3,1.619a1.112,1.112,0,0,0-.9,1.328l1.3,8.454c.122.792.607,1.251,1.255,1.141q6.794-1.146,13.614-2.084c.812-.112,2.507.382,2.523,1.191.162,2.705-.816,5.381-.65,8.086a1.393,1.393,0,0,1-1.2,1.423q-11.871,1.65-23.674,3.952a1.532,1.532,0,0,1-.3.03C122.2,70.6,121.812,70.175,121.69,69.491Zm160.922-.59q-10.514-1.823-21.085-3.133a1.181,1.181,0,0,1-1.049-1.476q3.228-29.68,6.457-59.363a1.209,1.209,0,0,1,1.491-1.165q4.977.618,9.943,1.335a1.291,1.291,0,0,1,1.166,1.52q-3.212,24.29-6.422,48.58a1.258,1.258,0,0,0,1.122,1.518q5.34.8,10.668,1.734a1.158,1.158,0,0,1,1,1.532q-.88,3.96-1.753,7.92a1.345,1.345,0,0,1-1.3,1.016A1.446,1.446,0,0,1,282.612,68.9ZM247.34,64.242q-4.425-.4-8.852-.717a1.263,1.263,0,0,1-1.117-1.418q1.823-29.815,3.647-59.629a1.307,1.307,0,0,1,1.432-1.241q4.993.353,9.981.808A1.238,1.238,0,0,1,253.666,3.5q-2.508,29.758-5.018,59.517c-.063.748-.455,1.229-1.154,1.229A1.51,1.51,0,0,1,247.34,64.242ZM216.033,62.51q-5.476-.106-10.951-.078c-5.9.034-9.663-3.585-9.885-11.88q-.6-24.563-1.2-49.125c-.02-.8.42-1.26,1.32-1.283q5-.122,10-.143a1.2,1.2,0,0,1,1.354,1.245q.032,24.659.064,49.319a1.19,1.19,0,0,0,1.308,1.16q2.7,0,5.392.041a1.031,1.031,0,0,0,1.079-1.145q.392-24.656.791-49.311A1.271,1.271,0,0,1,216.771.084q4.911.093,9.822.284c.9.035,1.425.5,1.394,1.305q-.916,24.55-1.835,49.1c-.324,8.156-4.017,11.737-9.825,11.737C216.23,62.513,216.131,62.512,216.033,62.51ZM354.889,22.347c-1.495-6.44-3.029-12.632-4.831-19.048a.658.658,0,0,1,.717-.883c3.526.159,6.734.332,10.257.664a.957.957,0,0,1,.95,1.325c-2.081,6.2-3.885,11.846-5.851,18.06a.614.614,0,0,1-.607.365A.6.6,0,0,1,354.889,22.347Z" transform="translate(811.974 401.805)"/><g transform="translate(1206.416 499.102)"><path class="a" d="M1146.841,477.544a3.1,3.1,0,1,1-3.1,3.105A3.114,3.114,0,0,1,1146.841,477.544Zm0,5.683a2.578,2.578,0,1,0-2.579-2.578A2.573,2.573,0,0,0,1146.841,483.227Zm-1.078-4a.164.164,0,0,1,.164-.164h1.224a.975.975,0,0,1,1.061.965.915.915,0,0,1-.7.94c.172.336.345.681.517,1.018a.161.161,0,0,1-.148.233h-.292a.207.207,0,0,1-.156-.121l-.483-1.077h-.638v1.034a.163.163,0,0,1-.163.164h-.225a.164.164,0,0,1-.164-.164Zm1.388,1.293a.488.488,0,0,0,.517-.492.474.474,0,0,0-.517-.491h-.845v.983Z" transform="translate(-1143.745 -477.544)"/></g><path class="b" d="M59.96,19.459c-.151-.138-3.685-3.305-7.426-3.305a11,11,0,0,0-5.194,1.679l-.195.126-1.456-2.205.2-.128a13.762,13.762,0,0,1,1.558-.846,7.623,7.623,0,0,1-4.111-6.771c0-4.717,3.782-8.008,9.2-8.008s9.2,3.291,9.2,8.008a7.6,7.6,0,0,1-4.109,6.782,18.454,18.454,0,0,1,4.139,2.735l.17.159-1.8,1.93ZM46.295,8.008c0,2.512,2.143,5.054,6.239,5.054,3.1,0,6.238-1.736,6.238-5.054,0-2.51-2.142-5.05-6.238-5.05S46.295,5.5,46.295,8.008Zm24.239.963V.452H73.49V8.971c0,2.4.311,4.091,4.345,4.091s4.346-1.695,4.346-4.091V.452h2.957V8.971c0,3.026-.757,7.048-7.3,7.048S70.534,12,70.534,8.971Zm72.743,6.6-1.865-3.421h-8.654l-1.809,3.421h-3.362L135.756.452h2.768l8.229,15.115Zm-8.967-6.379h5.6l-2.8-5.206Zm-25.134,6.379V.452h2.96V12.607h8.934v2.96Zm-13.256,0V.452h2.957V15.566Zm-73.73,0V.452H35.553v2.96h-10.4V6.306H30.86V9.261H25.149v3.346H35.835v2.96Zm-16.537,0V3.411H0V.452H14.21v2.96h-5.6V15.566Z" transform="translate(943.326 363.416)"/><path class="c" d="M0,44.159q8.47-3.852,17.04-7.367a.61.61,0,0,1,.821.321.661.661,0,0,1-.4.82q-7.94,3.257-15.8,6.805Q7.088,58.007,12.514,71.278a.234.234,0,0,1,.033-.024q5.9-2.663,11.849-5.153a.581.581,0,0,1,.776.323.632.632,0,0,1-.352.8Q18.886,69.7,13,72.36a.281.281,0,0,1-.039.009q3.891,9.519,7.782,19.038,6.956-3.143,13.984-6.028a.576.576,0,0,1,.761.345.626.626,0,0,1-.337.8q-7.556,3.106-15.033,6.5ZM377.264,90.437q-4.971-2.192-9.978-4.255a5.459,5.459,0,0,1-2.96-6.862q7.19-19.928,14.378-39.854a5.218,5.218,0,0,1,7.051-2.806q5.563,2.292,11.085,4.727a5.686,5.686,0,0,1,3.217,7.184l-16.1,39.117a5.071,5.071,0,0,1-4.676,3.175A4.978,4.978,0,0,1,377.264,90.437Zm2.631-50.5L365.421,79.756a4.212,4.212,0,0,0,2.283,5.3q5.019,2.069,10,4.266a3.881,3.881,0,0,0,5.167-2.127q8-19.579,16.009-39.159A4.394,4.394,0,0,0,396.4,42.5q-5.509-2.43-11.06-4.716a4.521,4.521,0,0,0-1.727-.348A3.876,3.876,0,0,0,379.9,39.941ZM36.313,29.688a.646.646,0,0,1,.421-.789.6.6,0,0,1,.792.351q7.95,24.472,15.9,48.943,6.876-2.467,13.806-4.7a.568.568,0,0,1,.718.4.609.609,0,0,1-.383.753q-7.46,2.4-14.862,5.081Q44.51,54.707,36.313,29.688ZM343.448,77.7a.612.612,0,0,1-.368-.762q1.109-3.55,2.217-7.1c-.005-.024-.024-.04-.027-.064Q342.35,46.437,337.722,23q-6.455,24.038-12.914,48.075a.57.57,0,0,1-.708.416.607.607,0,0,1-.4-.743q6.7-25.194,13.405-50.387a.6.6,0,0,1,.769-.4.656.656,0,0,1,.432.414.647.647,0,0,1,.243.379q4.627,23.245,7.571,46.43,6.24-19.982,12.478-39.963a.6.6,0,0,1,.786-.362.643.643,0,0,1,.428.782Q352,52.483,344.175,77.319a.578.578,0,0,1-.546.412A.543.543,0,0,1,343.448,77.7ZM154.226,69.581a.636.636,0,0,1-.184-.829c.1-.166,2.523-4.319,9.506-5.088-.206-2.582-.473-5.667-.68-8.25-1.45.128-2,.3-3.45.448a5.143,5.143,0,0,1-5.5-4.735c-1.434-14.324-2.74-28.4-4.174-42.722A5.446,5.446,0,0,1,154.75,2.57c3.9-.386,6.663-.754,10.57-1.044a5.338,5.338,0,0,1,5.844,4.9c.819,14.378,1.507,28.5,2.324,42.883A5.242,5.242,0,0,1,168.8,54.92c-1.684.125-3.12.249-4.8.394.2,2.588.462,5.679.663,8.266,6.764-.3,10.2,3.362,10.342,3.514a.639.639,0,0,1,0,.85.519.519,0,0,1-.357.174.528.528,0,0,1-.425-.175c-.026-.028-3.5-3.7-10.209-3.124-6.718.6-9.008,4.541-9.025,4.569a.541.541,0,0,1-.47.285A.531.531,0,0,1,154.226,69.581ZM165.4,2.727c-3.9.291-6.651.657-10.544,1.042a4.207,4.207,0,0,0-3.866,4.5c1.4,14.328,2.672,28.406,4.071,42.734a3.966,3.966,0,0,0,4.247,3.661c3.761-.372,6.138-.7,9.414-.943a4.045,4.045,0,0,0,3.617-4.343c-.853-14.375-1.575-28.5-2.427-42.875a4.107,4.107,0,0,0-4.181-3.787C165.623,2.715,165.512,2.718,165.4,2.727ZM93.09,66.653Q87.283,41.584,81.475,16.516q-4.908,1.255-9.8,2.617a.6.6,0,0,1-.762-.411.639.639,0,0,1,.469-.753q10.25-2.854,20.577-5.245a.6.6,0,0,1,.745.444.639.639,0,0,1-.5.732q-4.756,1.1-9.5,2.3Q88.456,41.285,94.2,66.368a.6.6,0,0,1-.424.727.536.536,0,0,1-.135.017A.581.581,0,0,1,93.09,66.653Zm212.273-.233q-7.813-1.936-15.675-3.576,4.939-26.112,9.875-52.223,8.908,1.86,17.764,4.062a.647.647,0,0,1,.5.751.615.615,0,0,1-.764.44q-8.206-2.04-16.46-3.786-2.713,14.158-5.426,28.318h.039q6.2,1.313,12.364,2.8a.618.618,0,0,1,.457.729.586.586,0,0,1-.712.446q-6.153-1.483-12.336-2.792c-.013,0-.022-.012-.035-.015q-1.945,10.155-3.893,20.312,7.306,1.546,14.572,3.346a.615.615,0,0,1,.434.737.592.592,0,0,1-.568.47A.579.579,0,0,1,305.363,66.42ZM110.827,8.922q8.93-1.7,17.9-3.057a.62.62,0,0,1,.721.509.639.639,0,0,1-.554.7Q120.582,8.335,112.3,9.888q2.412,14.219,4.826,28.437c.013,0,.022-.012.035-.014q6.218-1.165,12.454-2.155a.591.591,0,0,1,.677.5.613.613,0,0,1-.506.69q-6.221.987-12.423,2.15a.126.126,0,0,1-.02,0,.052.052,0,0,0-.018,0q1.732,10.2,3.461,20.4,7.329-1.375,14.688-2.494a.586.586,0,0,1,.658.518.607.607,0,0,1-.492.693q-7.913,1.205-15.793,2.7Q115.338,35.119,110.827,8.922ZM274.453,59.933q-7.643-1.314-15.316-2.353,3.216-26.243,6.435-52.489a.609.609,0,0,1,.7-.51.628.628,0,0,1,.553.684q-3.2,25.637-6.412,51.277,7.125.982,14.224,2.2a.6.6,0,0,1,.471.691.582.582,0,0,1-.564.505A.543.543,0,0,1,274.453,59.933Zm-37.889-4.811a.592.592,0,0,1-.523-.646q1.9-25.874,3.8-51.748a.611.611,0,0,1,.675-.55.624.624,0,0,1,.585.653q-1.964,25.87-3.926,51.739a.584.584,0,0,1-.567.554Zm-27.008-1.309q-5.277-.106-10.556-.082a5.2,5.2,0,0,1-5.071-5.232q-.347-23.945-.693-47.888A.633.633,0,0,1,194.5.593q.29,23.945.58,47.89a4.007,4.007,0,0,0,3.914,4.045q5.293-.024,10.585.081a4,4,0,0,0,3.97-3.985Q214.172,24.686,214.8.749a.633.633,0,0,1,1.265.037q-.68,23.936-1.362,47.872a5.2,5.2,0,0,1-5.049,5.156Z" transform="translate(818.195 405.457)"/></g></svg>